<svg width="17" height="15" viewBox="0 0 17 15" fill="none" xmlns="http://www.w3.org/2000/svg">
<path d="M14.1476 5.50951C13.1736 6.45325 11.6416 6.29244 10.8433 5.16266C10.045 4.03289 10.2654 2.33749 11.3187 1.50602C12.3036 0.639012 15.4302 1.14901 15.4302 1.14901C15.4302 1.14901 15.1439 4.6425 14.1476 5.50951Z" stroke="#05A86B" stroke-linecap="round" stroke-linejoin="round"/>
<path d="M3.8553 7.66854C4.70824 8.49505 6.04991 8.35422 6.74904 7.36479C7.44762 6.37615 7.24467 4.8823 6.33274 4.16238C5.47015 3.4031 2.73193 3.84974 2.73193 3.84974C2.73193 3.84974 2.98268 6.90926 3.8553 7.66854Z" stroke="#05A86B" stroke-linecap="round" stroke-linejoin="round"/>
<path d="M1.00024 14.0005C1.00024 14.0005 3.30907 11.4302 8.50393 11.4302C13.6988 11.4302 16.0076 14.0005 16.0076 14.0005" stroke="#05A86B" stroke-linecap="round" stroke-linejoin="round"/>
<path d="M10.9499 5.30811L10.7963 5.46779C9.64187 6.75295 8.61472 9.7134 8.50386 11.4305C8.50386 9.39615 8.15135 8.49324 6.86478 7.34358L6.80835 7.28386" stroke="#05A86B" stroke-linecap="round" stroke-linejoin="round"/>
</svg>
