<svg width="14" height="17" viewBox="0 0 14 17" fill="none" xmlns="http://www.w3.org/2000/svg">
<path d="M4.26805 14.1608C-0.784795 10.4679 3.70663 3.08161 5.95234 2.0265C7.74866 1.18253 9.3207 2.02649 9.88233 2.55406C12.0035 4.5467 9.68416 6.71654 10.807 8.29917C14.2615 12.3737 9.14965 17.7286 4.26805 14.1608Z" stroke="#05A86B" stroke-width="0.8" stroke-linecap="round" stroke-linejoin="round"/>
<path d="M7.53485 12.8182C8.37565 12.8182 9.05725 12.1366 9.05725 11.2958C9.05725 10.455 8.37565 9.77344 7.53485 9.77344C6.69405 9.77344 6.01245 10.455 6.01245 11.2958C6.01245 12.1366 6.69405 12.8182 7.53485 12.8182Z" stroke="#05A86B" stroke-width="0.8" stroke-linecap="round" stroke-linejoin="round"/>
<path d="M7.25982 6.65684C7.94737 6.65684 8.50474 6.09947 8.50474 5.41192C8.50474 4.72436 7.94737 4.16699 7.25982 4.16699C6.57226 4.16699 6.01489 4.72436 6.01489 5.41192C6.01489 6.09947 6.57226 6.65684 7.25982 6.65684Z" stroke="#05A86B" stroke-width="0.8" stroke-linecap="round" stroke-linejoin="round"/>
<path d="M4.61294 8.79131C4.44189 8.79131 4.30322 8.65265 4.30322 8.48159C4.30322 8.31054 4.44189 8.17188 4.61294 8.17188" stroke="#05A86B" stroke-width="0.8" stroke-linecap="round" stroke-linejoin="round"/>
<path d="M4.61304 8.79131C4.78409 8.79131 4.92276 8.65265 4.92276 8.48159C4.92276 8.31054 4.78409 8.17188 4.61304 8.17188" stroke="#05A86B" stroke-width="0.8" stroke-linecap="round" stroke-linejoin="round"/>
<path d="M7.55835 1.66915V0.5" stroke="#05A86B" stroke-width="0.8" stroke-linecap="round" stroke-linejoin="round"/>
<path d="M5.59513 2.23688L4.94067 1.26807" stroke="#05A86B" stroke-width="0.8" stroke-linecap="round" stroke-linejoin="round"/>
<path d="M4.16545 3.67523L3.17456 3.05469" stroke="#05A86B" stroke-width="0.8" stroke-linecap="round" stroke-linejoin="round"/>
<path d="M2.94664 5.66133L1.88989 5.16113" stroke="#05A86B" stroke-width="0.8" stroke-linecap="round" stroke-linejoin="round"/>
<path d="M2.18578 7.80725L1.03882 7.58057" stroke="#05A86B" stroke-width="0.8" stroke-linecap="round" stroke-linejoin="round"/>
<path d="M1.96433 9.87744L0.795654 9.9107" stroke="#05A86B" stroke-width="0.8" stroke-linecap="round" stroke-linejoin="round"/>
<path d="M2.42161 11.9375L1.34546 12.3944" stroke="#05A86B" stroke-width="0.8" stroke-linecap="round" stroke-linejoin="round"/>
<path d="M3.61121 13.6187L2.79712 14.4578" stroke="#05A86B" stroke-width="0.8" stroke-linecap="round" stroke-linejoin="round"/>
<path d="M5.44048 14.8481L4.90186 15.8858" stroke="#05A86B" stroke-width="0.8" stroke-linecap="round" stroke-linejoin="round"/>
<path d="M7.55835 16.5002V15.3311" stroke="#05A86B" stroke-width="0.8" stroke-linecap="round" stroke-linejoin="round"/>
<path d="M9.78455 16.0584L9.27856 15.0044" stroke="#05A86B" stroke-width="0.8" stroke-linecap="round" stroke-linejoin="round"/>
<path d="M11.7038 14.7079L10.8804 13.8779" stroke="#05A86B" stroke-width="0.8" stroke-linecap="round" stroke-linejoin="round"/>
<path d="M13.0076 12.2063L11.865 11.9585" stroke="#05A86B" stroke-width="0.8" stroke-linecap="round" stroke-linejoin="round"/>
<path d="M12.794 9.4292L11.7029 9.84931" stroke="#05A86B" stroke-width="0.8" stroke-linecap="round" stroke-linejoin="round"/>
<path d="M11.6496 7.37891L10.5586 7.79903" stroke="#05A86B" stroke-width="0.8" stroke-linecap="round" stroke-linejoin="round"/>
<path d="M11.938 5.28659L10.7764 5.15381" stroke="#05A86B" stroke-width="0.8" stroke-linecap="round" stroke-linejoin="round"/>
<path d="M11.6005 2.90918L10.5173 3.34916" stroke="#05A86B" stroke-width="0.8" stroke-linecap="round" stroke-linejoin="round"/>
<path d="M9.88588 1.12354L9.22852 2.09038" stroke="#05A86B" stroke-width="0.8" stroke-linecap="round" stroke-linejoin="round"/>
</svg>
