<svg width="16" height="17" viewBox="0 0 16 17" fill="none" xmlns="http://www.w3.org/2000/svg">
<path d="M10.2969 12.8398V13.6299C10.2969 14.9389 9.27185 16 8.00737 16C6.74289 16 5.71783 14.9389 5.71783 13.6299V12.8398M10.2969 12.8398H5.71783M10.2969 12.8398H13.0371C13.3291 12.8398 13.4757 12.8398 13.5939 12.7986C13.8197 12.7197 13.9964 12.5362 14.0726 12.3024C14.1126 12.1796 14.1126 12.0273 14.1126 11.7227C14.1126 11.5894 14.1125 11.5227 14.1024 11.4592C14.0833 11.3391 14.0383 11.2253 13.9698 11.1264C13.9335 11.0742 13.8875 11.0265 13.7967 10.9325L13.4994 10.6248C13.4035 10.5255 13.3496 10.3908 13.3496 10.2504V7.30954C13.3496 4.25523 10.9578 1.77923 8.00737 1.77924C5.05692 1.77925 2.6651 4.25524 2.6651 7.30954V10.2504C2.6651 10.3908 2.6111 10.5255 2.51519 10.6248L2.21793 10.9325C2.12688 11.0268 2.0813 11.0741 2.04502 11.1264C1.97645 11.2253 1.93103 11.3391 1.912 11.4592C1.90192 11.5227 1.90192 11.5894 1.90192 11.7227C1.90192 12.0273 1.90192 12.1795 1.94195 12.3024C2.01812 12.5361 2.19559 12.7197 2.42139 12.7986C2.5396 12.8398 2.68572 12.8398 2.97767 12.8398H5.71783M12.6006 1C13.6532 1.8211 14.4824 2.9104 15.0076 4.1618M3.41452 1C2.36193 1.8211 1.53269 2.9104 1.00757 4.1618" stroke="#05A86B" stroke-linecap="round" stroke-linejoin="round"/>
</svg>
