<svg width="17" height="15" viewBox="0 0 17 15" fill="none" xmlns="http://www.w3.org/2000/svg">
<path d="M14.3042 10.6087V12.8696C14.3042 13.1694 14.1851 13.4569 13.9731 13.6689C13.7611 13.8809 13.4736 14 13.1738 14H2.43463C2.13482 14 1.84729 13.8809 1.6353 13.6689C1.4233 13.4569 1.3042 13.1694 1.3042 12.8696V4.3913C1.3042 2.51834 2.82254 1 4.6955 1H12.0433V3.82609" stroke="#05A86B" stroke-linecap="round" stroke-linejoin="round"/>
<path d="M15.4348 7.21729H11.4783C11.1661 7.21729 10.9131 7.47034 10.9131 7.7825V10.0434C10.9131 10.3555 11.1661 10.6086 11.4783 10.6086H15.4348C15.7469 10.6086 16 10.3555 16 10.0434V7.7825C16 7.47034 15.7469 7.21729 15.4348 7.21729Z" stroke="#05A86B" stroke-linecap="round" stroke-linejoin="round"/>
<path d="M14.3043 7.21748V4.95661C14.3043 4.65679 14.1851 4.36927 13.9731 4.15726C13.7612 3.94527 13.4736 3.82617 13.1738 3.82617H12.0434H4.69556" stroke="#05A86B" stroke-linecap="round" stroke-linejoin="round"/>
</svg>
