<svg width="14" height="15" viewBox="0 0 14 15" fill="none" xmlns="http://www.w3.org/2000/svg">
<path d="M9.25 5.37053L6.25 8.28421L4.75 6.82737M13 6.21918C13 11.0036 9.27395 13.1487 7.69434 13.8431L7.69234 13.8439C7.52621 13.917 7.44294 13.9536 7.25415 13.985C7.1346 14.005 6.86616 14.005 6.7466 13.985C6.55707 13.9534 6.47292 13.9167 6.30546 13.8431C4.72585 13.1487 1 11.0036 1 6.21917V3.33109C1 2.51518 1 2.10692 1.16349 1.79529C1.3073 1.52117 1.5366 1.29846 1.81885 1.15879C2.13972 1 2.56007 1 3.40015 1H10.6001C11.4402 1 11.8597 1 12.1805 1.15879C12.4628 1.29846 12.6929 1.52117 12.8367 1.79529C13 2.10662 13 2.51438 13 3.3287V6.21918Z" stroke="#06A86B" stroke-linecap="round" stroke-linejoin="round"/>
</svg>
