<svg width="28" height="26" viewBox="0 0 28 26" fill="none" xmlns="http://www.w3.org/2000/svg">
<path d="M10.1554 18.9855C14.7148 18.7225 18.3339 14.8002 18.3339 9.99991C18.3339 5.0294 14.4535 1 9.66693 1C4.88032 1 1 5.0294 1 9.99991C1 11.771 1.49248 13.4224 2.34321 14.8148L1.73071 16.7229L1.72973 16.7257C1.49514 17.4566 1.37779 17.8221 1.46135 18.0655C1.53416 18.2775 1.69579 18.4447 1.89998 18.5203C2.13352 18.6067 2.48312 18.4857 3.18217 18.2438L3.19212 18.2406L5.03018 17.6046C6.37104 18.488 7.9615 18.9996 9.66701 18.9996C9.8309 18.9996 9.99372 18.9948 10.1554 18.9855ZM10.1554 18.9855C10.1555 18.9859 10.1552 18.9852 10.1554 18.9855ZM10.1554 18.9855C11.3412 22.4886 14.5552 25 18.3341 25C20.0396 25 21.6297 24.488 22.9705 23.6045L24.8081 24.2406L24.8117 24.2413C25.5154 24.4849 25.8681 24.607 26.1024 24.5202C26.3066 24.4446 26.4661 24.2774 26.539 24.0654C26.6226 23.8217 26.5056 23.4557 26.2704 22.7229L25.6579 20.8148L25.863 20.4617C26.5873 19.1467 27 17.6233 27 15.9999C27 11.0294 23.1205 6.99994 18.3339 6.99994L18.0094 7.00615L17.8458 7.01445" stroke="#8C8C8C" stroke-width="1.5" stroke-linecap="round" stroke-linejoin="round"/>
</svg>
