<svg width="31" height="25" viewBox="0 0 31 25" fill="none" xmlns="http://www.w3.org/2000/svg">
<path d="M1 24H3.9M3.9 24H12.6M3.9 24V11.9699C3.9 11.2179 3.9 10.8416 3.99421 10.4917C4.0777 10.1816 4.2158 9.88814 4.40127 9.62295C4.61056 9.3237 4.90143 9.07555 5.48452 8.58034L12.4468 2.66736C13.5278 1.74933 14.0683 1.29028 14.677 1.11556C15.2138 0.961481 15.7859 0.961481 16.3227 1.11556C16.9319 1.29041 17.4732 1.74989 18.5558 2.66931L25.5158 8.58034C26.0988 9.07553 26.3898 9.3237 26.5991 9.62295C26.7846 9.88814 26.9216 10.1816 27.0051 10.4917C27.0993 10.8416 27.1 11.2179 27.1 11.9699V24M12.6 24H18.4M12.6 24V18.3705C12.6 16.8159 13.8984 15.5557 15.5 15.5557C17.1016 15.5557 18.4 16.8159 18.4 18.3705V24M18.4 24H27.1M27.1 24H30" stroke="#ECF8F4" stroke-linecap="round" stroke-linejoin="round"/>
</svg>
