<svg width="30" height="24" viewBox="0 0 30 24" fill="none" xmlns="http://www.w3.org/2000/svg">
<path d="M1 23H3.8M3.8 23H12.2M3.8 23V11.4929C3.8 10.7736 3.8 10.4137 3.89096 10.079C3.97157 9.7824 4.10491 9.5017 4.28398 9.24804C4.48606 8.9618 4.7669 8.72444 5.32988 8.25076L12.0521 2.59487C13.0958 1.71675 13.6177 1.27766 14.2054 1.11053C14.7237 0.963156 15.2761 0.963156 15.7943 1.11053C16.3825 1.27779 16.9051 1.71729 17.9504 2.59674L24.6704 8.25076C25.2334 8.72442 25.5143 8.9618 25.7164 9.24804C25.8955 9.5017 26.0278 9.7824 26.1084 10.079C26.1994 10.4137 26.2 10.7736 26.2 11.4929V23M12.2 23H17.8M12.2 23V17.6152C12.2 16.1283 13.4536 14.9228 15 14.9228C16.5464 14.9228 17.8 16.1283 17.8 17.6152V23M17.8 23H26.2M26.2 23H29" stroke="#8C8C8C" stroke-width="1.5" stroke-linecap="round" stroke-linejoin="round"/>
</svg>
