<svg width="14" height="13" viewBox="0 0 14 13" fill="none" xmlns="http://www.w3.org/2000/svg">
<path d="M3.51953 3.73023V0.5L7.20665 2.34585L10.8938 0.5V3.73023C10.8938 5.51424 9.24299 6.96046 7.20665 6.96046C5.17031 6.96046 3.51953 5.51424 3.51953 3.73023Z" stroke="#05A86B" stroke-linecap="round" stroke-linejoin="round"/>
<path d="M7.20605 6.96289V12.5004" stroke="#05A86B" stroke-linecap="round" stroke-linejoin="round"/>
<path d="M7.20605 11.5754V12.4983H9.83971C11.5852 12.4983 13.0001 11.2588 13.0001 9.72956V9.2681C13.0001 9.01325 12.7642 8.80664 12.4734 8.80664H10.3664C8.62101 8.80664 7.20605 10.0462 7.20605 11.5754Z" stroke="#05A86B" stroke-linecap="round" stroke-linejoin="round"/>
<path d="M1.41211 9.2681V9.72956C1.41211 11.2588 2.82707 12.4983 4.5725 12.4983H7.20615V11.5754C7.20615 10.0462 5.79119 8.80664 4.04576 8.80664H1.93884C1.64794 8.80664 1.41211 9.01325 1.41211 9.2681Z" stroke="#05A86B" stroke-linecap="round" stroke-linejoin="round"/>
</svg>
