<svg width="29" height="29" viewBox="0 0 29 29" fill="none" xmlns="http://www.w3.org/2000/svg">
<path d="M14.4997 3.16675C17.1654 3.16675 19.3493 5.26714 19.4831 7.90015L19.4899 8.15601C19.4781 10.8542 17.3752 13.031 14.695 13.1335H14.654C14.5544 13.1238 14.4541 13.1256 14.36 13.1326C11.6031 13.0273 9.51041 10.8452 9.51041 8.15601C9.51058 5.40464 11.7483 3.16692 14.4997 3.16675Z" stroke="#8C8C8C" stroke-width="1.5"/>
<path d="M14.5148 16.1622C16.4891 16.1622 18.427 16.6323 19.9279 17.5353L20.2219 17.7218C21.503 18.5759 22.1619 19.6554 22.2473 20.7609L22.257 20.9825C22.2548 22.167 21.5902 23.3322 20.2199 24.257C18.677 25.2928 16.6077 25.8331 14.5002 25.8331C12.5243 25.8331 10.5818 25.3584 9.07538 24.4454L8.77948 24.257L8.77753 24.255L8.5285 24.0812C7.32633 23.1957 6.74346 22.1014 6.74335 21.0011C6.74335 19.8262 7.40813 18.6465 8.7912 17.7208L8.79022 17.7198C10.34 16.6952 12.4106 16.1623 14.5148 16.1622Z" stroke="#8C8C8C" stroke-width="1.5"/>
</svg>
