<svg width="29" height="29" viewBox="0 0 29 29" fill="none" xmlns="http://www.w3.org/2000/svg">
<path d="M14.4995 3.16675C17.1652 3.16675 19.3492 5.26714 19.4829 7.90015L19.4897 8.15601C19.4779 10.8542 17.375 13.031 14.6948 13.1335H14.6538C14.5543 13.1238 14.4539 13.1256 14.3599 13.1326C11.6029 13.0273 9.51025 10.8452 9.51025 8.15601C9.51043 5.40464 11.7481 3.16692 14.4995 3.16675Z" stroke="white" stroke-width="1.5"/>
<path d="M14.5146 16.1624C16.489 16.1624 18.4268 16.6324 19.9277 17.5354L20.2217 17.7219C21.5028 18.576 22.1617 19.6556 22.2471 20.761L22.2568 20.9827C22.2546 22.1671 21.5901 23.3323 20.2197 24.2571C18.6768 25.2929 16.6076 25.8332 14.5 25.8333C12.5241 25.8333 10.5816 25.3585 9.0752 24.4456L8.7793 24.2571L8.77734 24.2551L8.52832 24.0813C7.32615 23.1959 6.74328 22.1015 6.74316 21.0012C6.74316 19.8263 7.40794 18.6466 8.79102 17.7209L8.79004 17.72C10.3398 16.6953 12.4104 16.1624 14.5146 16.1624Z" stroke="white" stroke-width="1.5"/>
</svg>
