<svg width="29" height="29" viewBox="0 0 29 29" fill="none" xmlns="http://www.w3.org/2000/svg">
<path d="M14.4996 3.16669C17.1653 3.16669 19.3493 5.26708 19.483 7.90009L19.4899 8.15594C19.478 10.8541 17.3751 13.031 14.6949 13.1335H14.6539C14.5544 13.1237 14.4541 13.1256 14.36 13.1325C11.6031 13.0273 9.51038 10.8452 9.51038 8.15594C9.51055 5.40458 11.7483 3.16686 14.4996 3.16669Z" stroke="#8C8C8C" stroke-width="1.5"/>
<path d="M14.5148 16.1623C16.4891 16.1623 18.4269 16.6323 19.9279 17.5353L20.2218 17.7219C21.5029 18.5759 22.1618 19.6555 22.2472 20.7609L22.257 20.9826C22.2547 22.1671 21.5902 23.3322 20.2198 24.257C18.6769 25.2929 16.6077 25.8332 14.5001 25.8332C12.5242 25.8332 10.5818 25.3584 9.07532 24.4455L8.77942 24.257L8.77747 24.2551L8.52844 24.0812C7.32627 23.1958 6.7434 22.1015 6.74329 21.0012C6.74329 19.8263 7.40806 18.6466 8.79114 17.7209L8.79016 17.7199C10.34 16.6953 12.4105 16.1623 14.5148 16.1623Z" stroke="#8C8C8C" stroke-width="1.5"/>
</svg>
